<?xml version="1.0" encoding="UTF-8"?>
<svg version="1.1" xmlns="http://www.w3.org/2000/svg" width="512" height="512">
<path d="M0 0 C1.33032802 1.09361485 2.68461853 2.15999271 4.078125 3.171875 C8.15794033 6.18739068 9.39556445 8.8284774 10.1953125 13.8046875 C9.94007813 14.57425781 9.68484375 15.34382813 9.421875 16.13671875 C8.89061348 19.04986709 8.89061348 19.04986709 11.28515625 21.84765625 C12.21944272 22.90916471 13.16935733 23.95708095 14.1328125 24.9921875 C19.1953125 30.59685617 19.1953125 30.59685617 19.1953125 32.8046875 C20.8040625 32.4953125 20.8040625 32.4953125 22.4453125 32.1796875 C27.26079009 31.69813974 27.26079009 31.69813974 30.1953125 33.8046875 C31.79559965 36.12377276 33.16838501 38.34203932 34.5078125 40.8046875 C34.89807617 41.5167334 35.28833984 42.2287793 35.69042969 42.96240234 C51.92517156 73.37106783 57.5394051 111.18447148 49.1953125 144.8046875 C49.00727051 145.58005859 48.81922852 146.35542969 48.62548828 147.15429688 C42.77923423 170.46489776 31.88125201 191.68717082 15.44921875 209.265625 C12.80503199 212.24434492 10.41497368 215.33764619 8.0703125 218.5546875 C7.30460938 219.60140625 6.53890625 220.648125 5.75 221.7265625 C-1.59498676 232.91913526 -5.87774338 245.0934793 -9.9296875 257.7421875 C-10.43258062 259.28613765 -10.93648432 260.82975902 -11.44140625 262.37304688 C-12.62179519 265.98465252 -13.79731295 269.59757896 -14.94221497 273.22061157 C-15.60961586 275.22022839 -16.3320824 277.20151247 -17.07670593 279.17367554 C-20.37619578 288.20610286 -21.49737376 295.96276364 -21.37109375 305.6640625 C-21.37406737 307.02875619 -21.37982222 308.39344627 -21.38816833 309.75811768 C-21.40860493 314.02387418 -21.38939909 318.28897498 -21.3671875 322.5546875 C-21.3458956 327.52256518 -21.34175906 332.48978395 -21.36768913 337.45764923 C-21.37099458 339.41775283 -21.34952271 341.37784934 -21.32728577 343.33782959 C-21.36077654 354.67608141 -23.85127588 364.4261492 -31.8046875 372.8046875 C-37.55039004 378.28571276 -43.06378166 381.10782923 -50.8046875 382.8046875 C-50.75828125 383.84367187 -50.711875 384.88265625 -50.6640625 385.953125 C-50.34240399 396.17867354 -51.07454459 404.16773613 -57.4296875 412.6171875 C-65.21447849 420.44287281 -73.29384269 421.40121002 -83.91439819 421.49363708 C-85.87916565 421.49003523 -87.84393497 421.47751912 -89.80859375 421.45654297 C-92.79816443 421.42974597 -95.78398152 421.4563636 -98.7734375 421.48828125 C-118.76590443 421.52534978 -118.76590443 421.52534978 -126.67700195 414.03100586 C-133.28502964 407.00656214 -134.97482965 399.92783476 -134.8671875 390.5546875 C-134.86267578 389.80960937 -134.85816406 389.06453125 -134.85351562 388.296875 C-134.84177996 386.4661111 -134.823846 384.63538877 -134.8046875 382.8046875 C-135.42214844 382.66933594 -136.03960937 382.53398437 -136.67578125 382.39453125 C-146.95082453 379.78276226 -154.37145361 373.88407174 -159.8046875 364.8046875 C-164.06707151 356.13935149 -164.39760051 347.70600166 -164.3359375 338.25 C-164.3386388 336.77554062 -164.34252649 335.30108299 -164.34753418 333.82662964 C-164.35338831 330.75891916 -164.34499276 327.69167874 -164.32617188 324.62402344 C-164.30326223 320.69982566 -164.31660552 316.77671522 -164.34046173 312.85255623 C-164.35492816 309.8172691 -164.35031212 306.78223938 -164.33995056 303.74694443 C-164.33729184 302.29971053 -164.3405229 300.8524529 -164.34986877 299.40524673 C-164.3600598 297.38621742 -164.34176482 295.3671054 -164.32226562 293.34814453 C-164.31908325 292.20217804 -164.31590088 291.05621155 -164.31262207 289.8755188 C-163.70074787 286.17629739 -162.15933123 284.644447 -159.8046875 281.8046875 C-160.35435343 278.94031727 -160.96521033 276.82334774 -162.0546875 274.1796875 C-164.8046875 267.02139604 -164.8046875 267.02139604 -164.8046875 263.8046875 C-165.8978125 263.7015625 -166.9909375 263.5984375 -168.1171875 263.4921875 C-171.90162809 262.78661383 -172.55389271 262.64855138 -174.8046875 259.8046875 C-175.75268555 257.68261719 -175.75268555 257.68261719 -176.56640625 255.2265625 C-176.87626465 254.320271 -177.18612305 253.41397949 -177.50537109 252.48022461 C-177.83102051 251.51479736 -178.15666992 250.54937012 -178.4921875 249.5546875 C-184.46694966 232.58939866 -192.41142892 218.71758316 -204.7421875 205.5546875 C-220.00220388 188.63329836 -229.41855081 166.69933313 -234.8046875 144.8046875 C-234.98257813 144.09086914 -235.16046875 143.37705078 -235.34375 142.64160156 C-244.11517239 105.5893034 -235.14838548 65.97173583 -215.8046875 33.8046875 C-210.63249156 25.8256156 -204.33305628 18.68991245 -197.8046875 11.8046875 C-197.36286133 11.3303125 -196.92103516 10.8559375 -196.46582031 10.3671875 C-145.29864533 -44.32507469 -56.89985919 -47.02014087 0 0 Z " fill="#FDE359" transform="translate(348.8046875,91.1953125)"/>
<path d="M0 0 C5.02089883 1.55191418 6.77198744 3.90256819 9.3671875 8.42578125 C10.02639289 9.73682849 10.67429463 11.05360282 11.3125 12.375 C11.65837158 13.08575684 12.00424316 13.79651367 12.3605957 14.52880859 C13.40298368 16.69926686 14.42457838 18.87815189 15.4375 21.0625 C16.26701172 22.85107422 16.26701172 22.85107422 17.11328125 24.67578125 C28.71605348 51.62899116 31.50481633 84.58670123 24.4375 113.0625 C24.15543701 114.22555664 24.15543701 114.22555664 23.86767578 115.41210938 C18.02142173 138.72271026 7.12343951 159.94498332 -9.30859375 177.5234375 C-11.95278051 180.50215742 -14.34283882 183.59545869 -16.6875 186.8125 C-17.45320312 187.85921875 -18.21890625 188.9059375 -19.0078125 189.984375 C-26.35279926 201.17694776 -30.63555588 213.3512918 -34.6875 226 C-35.19039312 227.54395015 -35.69429682 229.08757152 -36.19921875 230.63085938 C-37.37960769 234.24246502 -38.55512545 237.85539146 -39.70002747 241.47842407 C-40.36742836 243.47804089 -41.0898949 245.45932497 -41.83451843 247.43148804 C-45.13400828 256.46391536 -46.25518626 264.22057614 -46.12890625 273.921875 C-46.13187987 275.28656869 -46.13763472 276.65125877 -46.14598083 278.01593018 C-46.16641743 282.28168668 -46.14721159 286.54678748 -46.125 290.8125 C-46.1037081 295.78037768 -46.09957156 300.74759645 -46.12550163 305.71546173 C-46.12880708 307.67556533 -46.10733521 309.63566184 -46.08509827 311.59564209 C-46.11858904 322.93389391 -48.60908838 332.6839617 -56.5625 341.0625 C-62.30820254 346.54352526 -67.82159416 349.36564173 -75.5625 351.0625 C-75.51609375 352.10148437 -75.4696875 353.14046875 -75.421875 354.2109375 C-75.10021649 364.43648604 -75.83235709 372.42554863 -82.1875 380.875 C-89.97229099 388.70068531 -98.05165519 389.65902252 -108.67221069 389.75144958 C-110.63697815 389.74784773 -112.60174747 389.73533162 -114.56640625 389.71435547 C-117.55597693 389.68755847 -120.54179402 389.7141761 -123.53125 389.74609375 C-143.52371693 389.78316228 -143.52371693 389.78316228 -151.43481445 382.28881836 C-158.04284214 375.26437464 -159.73264215 368.18564726 -159.625 358.8125 C-159.62048828 358.06742187 -159.61597656 357.32234375 -159.61132812 356.5546875 C-159.59959246 354.7239236 -159.5816585 352.89320127 -159.5625 351.0625 C-160.17996094 350.92714844 -160.79742187 350.79179687 -161.43359375 350.65234375 C-171.70882886 348.040526 -179.12897786 342.14182512 -184.5625 333.0625 C-188.83184165 324.38773581 -189.15535073 315.93940748 -189.09375 306.47265625 C-189.09645102 304.99580124 -189.10033849 303.51894798 -189.10534668 302.042099 C-189.11120027 298.97019257 -189.10280579 295.89875562 -189.08398438 292.8269043 C-189.06105467 288.89364128 -189.07443079 284.96146187 -189.09827423 281.02823734 C-189.11272517 277.98870152 -189.10813208 274.94942324 -189.09776306 271.90987968 C-189.09510108 270.45902819 -189.09834697 269.00815309 -189.10768127 267.55732918 C-189.1178488 265.5357013 -189.09960128 263.51399082 -189.08007812 261.49243164 C-189.07689575 260.34424454 -189.07371338 259.19605743 -189.07043457 258.01307678 C-188.43924803 254.34653296 -187.43049248 253.36904654 -184.5625 251.0625 C-182.11813736 250.57030869 -182.11813736 250.57030869 -179.33599854 250.58148193 C-177.75009666 250.57323395 -177.75009666 250.57323395 -176.13215637 250.56481934 C-174.40046455 250.58639099 -174.40046455 250.58639099 -172.63378906 250.60839844 C-171.41400864 250.60781433 -170.19422821 250.60723022 -168.93748474 250.60662842 C-165.59653073 250.60893706 -162.25656651 250.62899 -158.9157877 250.65692425 C-155.42311586 250.68193694 -151.93043069 250.68427978 -148.43768311 250.68902588 C-141.82552815 250.70145612 -135.21363788 250.73427812 -128.60159945 250.77442384 C-121.0732714 250.81914026 -113.54493067 250.84112822 -106.01650286 250.86120558 C-90.53168197 250.90301092 -75.04712512 250.97336361 -59.5625 251.0625 C-59.43419611 250.46538491 -59.30589222 249.86826982 -59.17370033 249.25306034 C-57.45255547 241.35521289 -57.45255547 241.35521289 -56.17724609 237.53100586 C-55.7957692 236.37821388 -55.7957692 236.37821388 -55.40658569 235.20213318 C-55.13577179 234.40195267 -54.86495789 233.60177216 -54.5859375 232.77734375 C-54.29699615 231.91798721 -54.00805481 231.05863068 -53.71035767 230.17323303 C-53.09935483 228.36307179 -52.48573875 226.55379071 -51.86962891 224.74536133 C-50.94945874 222.0352216 -50.04671535 219.31968661 -49.14453125 216.60351562 C-42.95966565 198.24191102 -35.25190499 183.09001813 -22.52001953 168.36694336 C1.3113206 140.74444323 13.40451618 106.63913054 11.4375 70.0625 C9.75563666 51.08415842 4.21708434 30.40686647 -6.5 14.4375 C-8.71645971 10.81056592 -9.48351025 9.20704613 -8.5625 5.0625 C-5.88937913 1.25532785 -4.71546409 0.08272744 0 0 Z " fill="#010101" transform="translate(373.5625,122.9375)"/>
<path d="M0 0 C0.61875 -0.00773438 1.2375 -0.01546875 1.875 -0.0234375 C8.54598393 1.22737199 12.71221285 5.6545384 17.25 10.3125 C17.87390625 10.93318359 18.4978125 11.55386719 19.140625 12.19335938 C23.24764876 16.34906553 25.74001946 19.14659538 26.4375 25.125 C26.18730679 33.55008794 19.02077911 39.79770445 13.41503906 45.37988281 C12.66798706 46.13540436 11.92093506 46.8909259 11.15124512 47.66934204 C8.69709878 50.14675117 6.23204399 52.61293797 3.765625 55.078125 C2.04526013 56.80559667 0.32519233 58.53336423 -1.39459229 60.26141357 C-4.99389706 63.87413773 -8.59905433 67.48089996 -12.20800781 71.08398438 C-16.8226018 75.69267787 -21.41867047 80.31937112 -26.01006699 84.95116043 C-29.55483002 88.52181803 -33.11104801 92.0808943 -36.67060089 95.63680267 C-38.36974489 97.33763551 -40.06492657 99.04243665 -41.75597382 100.75131989 C-44.12468134 103.14225473 -46.5088523 105.51666404 -48.89746094 107.88769531 C-49.58660583 108.59010345 -50.27575073 109.2925116 -50.98577881 110.01620483 C-56.57251887 115.50827313 -62.48515807 119.26975318 -70.4375 119.9375 C-80.25540701 119.41488786 -87.47085527 112.64035007 -94 105.96875 C-94.80236084 105.16642944 -95.60472168 104.36410889 -96.43139648 103.53747559 C-98.11114671 101.8523988 -99.78483164 100.16125581 -101.45263672 98.46435547 C-104.0066482 95.86824221 -106.58159213 93.29436119 -109.16015625 90.72265625 C-110.79554314 89.07678406 -112.42970207 87.42969061 -114.0625 85.78125 C-114.83013672 85.01341187 -115.59777344 84.24557373 -116.38867188 83.45446777 C-117.09701172 82.73021606 -117.80535156 82.00596436 -118.53515625 81.25976562 C-119.157854 80.62864868 -119.78055176 79.99753174 -120.42211914 79.34729004 C-123.60286507 75.37148066 -124.23392903 71.56029835 -124.4609375 66.53515625 C-123.15436126 60.4119642 -117.80419641 55.87063591 -113.5 51.625 C-112.64728516 50.76068359 -112.64728516 50.76068359 -111.77734375 49.87890625 C-110.94396484 49.04939453 -110.94396484 49.04939453 -110.09375 48.203125 C-109.59552734 47.7071582 -109.09730469 47.21119141 -108.58398438 46.70019531 C-104.95117022 43.66090505 -101.92238253 43.13611533 -97.1953125 43.01171875 C-91.87549768 43.89204398 -87.98434092 46.98786456 -84.125 50.5625 C-82.84882813 51.74199219 -82.84882813 51.74199219 -81.546875 52.9453125 C-77.96740092 56.36008686 -74.45434493 59.83381399 -71 63.375 C-64.74144321 58.26290389 -59.11132871 52.57542629 -53.44270134 46.83173561 C-51.68360478 45.0503973 -49.92038244 43.27323993 -48.15589905 41.49723816 C-43.1441076 36.45204865 -38.13663371 31.40263398 -33.1394043 26.34301758 C-30.07091824 23.23681574 -26.99510546 20.13803163 -23.91452217 17.04382896 C-22.74719507 15.86847363 -21.58264571 14.69035248 -20.42100334 13.50937843 C-18.79658826 11.85838299 -17.16300159 10.21699588 -15.52709961 8.57739258 C-14.13979897 7.17557487 -14.13979897 7.17557487 -12.72447205 5.74543762 C-8.98890799 2.49529542 -5.07879746 -0.06348497 0 0 Z " fill="#030301" transform="translate(305,141.625)"/>
<path d="M0 0 C1.33032802 1.09361485 2.68461853 2.15999271 4.078125 3.171875 C7.00905968 5.33821802 8.2552751 6.93900372 9.7578125 10.3046875 C10.1953125 13.8046875 10.1953125 13.8046875 8.9453125 16.6796875 C6.58341849 19.54770166 5.6794371 19.74934233 1.94921875 20.17578125 C-2.64875326 19.72124708 -4.67990726 17.94164813 -7.8671875 14.8671875 C-30.83636732 -5.7857445 -61.0276379 -16.656777 -91.7421875 -16.5703125 C-92.83259842 -16.56949677 -92.83259842 -16.56949677 -93.94503784 -16.56866455 C-128.97146715 -16.44843598 -160.18230817 -2.87356728 -185.1796875 21.6796875 C-203.50696734 40.28896493 -214.69929318 63.37344203 -219.8046875 88.8046875 C-220.0315625 89.85785156 -220.2584375 90.91101563 -220.4921875 91.99609375 C-226.51634687 124.08310928 -217.82443237 158.46108935 -199.546875 185.21484375 C-196.58183492 189.2479359 -193.44011497 193.09102089 -190.1484375 196.859375 C-177.57814129 211.26603139 -158.76532109 236.31113533 -160.04296875 256.5859375 C-160.8046875 259.8046875 -160.8046875 259.8046875 -162.9921875 262.3046875 C-165.8046875 263.8046875 -165.8046875 263.8046875 -168.9296875 263.7421875 C-171.93616012 262.76181599 -172.8390242 262.17864781 -174.8046875 259.8046875 C-175.75268555 257.68261719 -175.75268555 257.68261719 -176.56640625 255.2265625 C-176.87626465 254.320271 -177.18612305 253.41397949 -177.50537109 252.48022461 C-177.83102051 251.51479736 -178.15666992 250.54937012 -178.4921875 249.5546875 C-184.46694966 232.58939866 -192.41142892 218.71758316 -204.7421875 205.5546875 C-220.00220388 188.63329836 -229.41855081 166.69933313 -234.8046875 144.8046875 C-234.98257813 144.09086914 -235.16046875 143.37705078 -235.34375 142.64160156 C-244.11517239 105.5893034 -235.14838548 65.97173583 -215.8046875 33.8046875 C-210.63249156 25.8256156 -204.33305628 18.68991245 -197.8046875 11.8046875 C-197.36286133 11.3303125 -196.92103516 10.8559375 -196.46582031 10.3671875 C-145.29864533 -44.32507469 -56.89985919 -47.02014087 0 0 Z " fill="#010100" transform="translate(348.8046875,91.1953125)"/>
<path d="M0 0 C27.91433895 2.79143389 54.42515799 14.39671935 74.875 33.625 C78.6062685 36.46076406 80.41955724 36.61659806 85 36 C85.99 35.67 86.98 35.34 88 35 C92.71993196 40.05216018 96.84732701 44.82601539 100 51 C99.2575 51.556875 99.2575 51.556875 98.5 52.125 C96.29833757 54.87707804 96.63411898 56.52006501 97 60 C98.2899027 62.5855383 99.6054701 64.93590553 101.125 67.375 C116.95297379 94.24307101 121.33868844 127.81809712 113.77734375 158.03515625 C107.89887212 180.27561047 98.54314073 199.11920345 83.37304688 216.41162109 C70.89401776 230.84770989 63.0575975 246.01626124 57 264 C56.76718323 264.69023254 56.53436646 265.38046509 56.29449463 266.09161377 C52.48868232 277.38091091 48.73425798 288.6868539 45 300 C36.42 300 27.84 300 19 300 C20.30972877 294.10622054 21.66589951 288.50738082 23.5390625 282.80859375 C23.90588638 281.68602928 23.90588638 281.68602928 24.28012085 280.54078674 C24.79709581 278.96608383 25.31654649 277.3921917 25.83837891 275.8190918 C26.61392729 273.47102399 27.37161733 271.11768104 28.12890625 268.76367188 C33.9413438 251.01064058 41.81878583 234.49228228 54.8125 220.8125 C81.43449473 192.28597687 90.31944695 155.42775 89.17285156 117.46484375 C88.83708293 110.73429517 87.76739391 104.50583793 86 98 C85.7215625 96.85789062 85.443125 95.71578125 85.15625 94.5390625 C76.60255031 61.72530076 55.90219318 32.07630857 27 14 C18.3111045 8.91949111 9.49152669 4.36900606 0 1 C0 0.67 0 0.34 0 0 Z " fill="#FCD202" transform="translate(269,74)"/>
<path d="M0 0 C36.96 0 73.92 0 112 0 C112 4.29 112 8.58 112 13 C110.28901123 13.01458252 108.57802246 13.02916504 106.81518555 13.04418945 C101.16321713 13.09582731 95.51151678 13.16110936 89.85980511 13.23571491 C86.43300921 13.28045028 83.00633305 13.31969888 79.5793457 13.34643555 C75.6398769 13.37741047 71.70091349 13.43220098 67.76171875 13.48828125 C66.53039719 13.49467117 65.29907562 13.5010611 64.03044128 13.50764465 C62.88948502 13.52743881 61.74852875 13.54723297 60.57299805 13.56762695 C59.567061 13.57873001 58.56112396 13.58983307 57.52470398 13.60127258 C54.97657032 13.81017023 54.97657032 13.81017023 53.17512512 15.30827332 C51.20258797 18.1479656 51.64312653 20.66918096 52 24 C53.10961278 25.79905588 53.10961278 25.79905588 55 27 C57.60059046 27.47328463 57.60059046 27.47328463 60.57299805 27.43237305 C62.28443245 27.46206429 62.28443245 27.46206429 64.03044128 27.49235535 C65.26176285 27.49874527 66.49308441 27.50513519 67.76171875 27.51171875 C69.02264847 27.52966995 70.28357819 27.54762115 71.5827179 27.56611633 C74.93155514 27.61115424 78.2800242 27.64342741 81.62902832 27.66955566 C85.04774286 27.69935766 88.4662251 27.7458891 91.88476562 27.79101562 C98.58975783 27.87611708 105.29471362 27.94285178 112 28 C112 32.29 112 36.58 112 41 C75.04 41 38.08 41 0 41 C0 36.71 0 32.42 0 28 C1.68609375 27.97421875 3.3721875 27.9484375 5.109375 27.921875 C7.32294269 27.86559786 9.53648336 27.80825044 11.75 27.75 C12.86117187 27.73582031 13.97234375 27.72164063 15.1171875 27.70703125 C16.18710938 27.67480469 17.25703125 27.64257812 18.359375 27.609375 C19.34389648 27.58842773 20.32841797 27.56748047 21.34277344 27.54589844 C24.70335701 26.85550291 25.91232903 25.67790256 28 23 C28.66680368 19.95720628 28.66680368 19.95720628 28 17 C24.9446615 13.99398416 22.56369824 13.60009836 18.359375 13.48828125 C17.28945312 13.45283203 16.21953125 13.41738281 15.1171875 13.38085938 C14.00601563 13.35830078 12.89484375 13.33574219 11.75 13.3125 C10.62335938 13.27833984 9.49671875 13.24417969 8.3359375 13.20898438 C5.55764046 13.12657726 2.77883601 13.06161028 0 13 C0 8.71 0 4.42 0 0 Z " fill="#B4C2CD" transform="translate(200,389)"/>
<path d="M0 0 C1.08839774 0.88967344 2.17044608 1.78711574 3.25 2.6875 C3.85328125 3.18636719 4.4565625 3.68523437 5.078125 4.19921875 C7.3109424 6.2913505 9.13539658 8.57849069 11 11 C1.09971309 21.04054874 -8.81798887 31.06360575 -18.75597477 41.0668478 C-23.37002954 45.71222147 -27.97833476 50.3630134 -32.57397461 55.02661133 C-37.00880217 59.52660594 -41.45810485 64.01180667 -45.91784477 68.48710823 C-47.61716404 70.19751815 -49.31119124 71.9132026 -50.99980354 73.63418388 C-53.36508294 76.04298563 -55.74844782 78.43238286 -58.13696289 80.81811523 C-58.83180283 81.53452682 -59.52664276 82.25093842 -60.24253845 82.98905945 C-64.31176691 87.00724258 -66.99594668 89.01294223 -73 89 C-74.92382813 88.07397461 -74.92382813 88.07397461 -76.53125 86.46484375 C-77.19898438 85.81628418 -77.86671875 85.16772461 -78.5546875 84.49951172 C-79.36164063 83.67467285 -80.16859375 82.84983398 -81 82 C-82.08415574 80.9293451 -83.17024801 79.86064916 -84.2578125 78.79345703 C-88.03191511 75.07618945 -91.76675655 71.32072602 -95.5 67.5625 C-96.81226585 66.24520941 -98.12476395 64.92815014 -99.4375 63.61132812 C-102.62768506 60.4102139 -105.81470651 57.20598135 -109 54 C-105.6189962 49.86378916 -102.33409466 46.18683431 -98 43 C-97.34402832 43.6612085 -96.68805664 44.32241699 -96.01220703 45.00366211 C-93.58028964 47.45260853 -91.14614635 49.89929753 -88.71044922 52.34448242 C-87.6561597 53.40380474 -86.60276891 54.46402229 -85.55029297 55.52514648 C-84.03848143 57.04906961 -82.52348098 58.56975784 -81.0078125 60.08984375 C-80.09660645 61.00628662 -79.18540039 61.92272949 -78.24658203 62.86694336 C-75.5518403 65.42551307 -74.5517058 65.91172707 -70.875 66.5 C-61.14284189 65.24423766 -52.07629617 52.20246769 -45.3125 45.41015625 C-44.00135899 44.09714694 -42.68999463 42.78436063 -41.37841797 41.4717865 C-37.95022763 38.03980344 -34.52505278 34.60482651 -31.1005249 31.16918945 C-27.59619796 27.65457813 -24.08898917 24.14284511 -20.58203125 20.63085938 C-13.71855143 13.75669956 -6.85825799 6.87936931 0 0 Z " fill="#21B07D" transform="translate(305,157)"/>
<path d="M0 0 C35.64 0 71.28 0 108 0 C105.45247249 6.36881879 103.0411618 9.81405811 96.98089218 13.1587944 C93.67097902 14.564382 90.35313787 14.57337585 86.82080078 14.54931641 C86.03444244 14.55953827 85.24808411 14.56976013 84.43789673 14.58029175 C81.85671946 14.60793058 79.27661951 14.60618241 76.6953125 14.6015625 C74.88841359 14.60934528 73.0815183 14.61801644 71.27462769 14.62753296 C67.49367394 14.64242458 63.71309379 14.64189944 59.93212891 14.63134766 C55.10446059 14.61976564 50.27832881 14.65361362 45.45091438 14.700037 C41.72060315 14.7296091 37.9906578 14.7312421 34.26025009 14.72501755 C32.48136224 14.72603924 30.70245263 14.7364257 28.92367935 14.75664139 C12.18655319 14.92352069 12.18655319 14.92352069 5.56613159 9.6043396 C0 3.90241431 0 3.90241431 0 0 Z " fill="#B5C3CE" transform="translate(202,445)"/>
<path d="M0 0 C17.82 0 35.64 0 54 0 C54 15.56149733 54 15.56149733 50 20 C45.31916943 22.84574727 41.33894761 23.45561824 35.96875 23.43359375 C35.21460815 23.4388356 34.46046631 23.44407745 33.68347168 23.44947815 C32.09677354 23.45587149 30.51002782 23.45459632 28.92333984 23.44604492 C26.50662357 23.43752336 24.09226522 23.46634803 21.67578125 23.49804688 C20.12760487 23.49965897 18.57942434 23.49908119 17.03125 23.49609375 C16.31545776 23.50732773 15.59966553 23.51856171 14.86218262 23.53013611 C9.7711209 23.45999584 6.8648925 22.28340185 3 19 C0 14 0 14 0 0 Z " fill="#5BABED" transform="translate(229,474)"/>
<path d="M0 0 C1.9375 1.5625 1.9375 1.5625 3 4 C3.22886309 6.72034996 3.13702696 9.25946073 3 12 C4.216875 11.896875 5.43375 11.79375 6.6875 11.6875 C10.22393408 11.69378141 10.93853572 11.95646281 14 14.125 C16 17 16 17 16.625 20 C15.762119 24.14182881 14.44150865 25.56226471 11 28 C8.19242993 28.40997788 5.86006586 28.24237846 3 28 C3.103125 29.216875 3.20625 30.43375 3.3125 31.6875 C3.29398465 35.15604276 3.00472567 35.99276382 1 39.0625 C-2.53272578 41.34405207 -4.17687443 41.46682795 -8.1953125 40.6328125 C-10 40 -10 40 -12 38.4375 C-13.46967509 34.85516698 -13.19287573 31.85751467 -13 28 C-14.2375 28.061875 -15.475 28.12375 -16.75 28.1875 C-19.44942143 28.16838905 -20.92767928 28.03152442 -23.4375 26.9375 C-25.79259706 24.01717965 -25.93611417 21.70537805 -26 18 C-24.65437601 15.05244268 -23.91445456 13.45722728 -21 12 C-18.3276379 11.86584528 -15.67749512 11.95681459 -13 12 C-13.061875 10.39125 -13.061875 10.39125 -13.125 8.75 C-12.95462478 3.63874346 -12.95462478 3.63874346 -11 1 C-7.44020669 -1.76872813 -4.1946238 -1.06772242 0 0 Z " fill="#000000" transform="translate(65,334)"/>
<path d="M0 0 C4.14182881 0.862881 5.56226471 2.18349135 8 5.625 C8.40997788 8.43257007 8.24237846 10.76493414 8 13.625 C9.2375 13.563125 10.475 13.50125 11.75 13.4375 C14.44942143 13.45661095 15.92767928 13.59347558 18.4375 14.6875 C20.76034026 17.56782192 20.87213096 19.98073222 21 23.625 C20.21395017 26.26898578 19.51393337 27.24430861 17.3125 28.875 C14.16454282 29.89595909 11.28456632 29.75132947 8 29.625 C8.04125 30.6975 8.0825 31.77 8.125 32.875 C7.95024876 38.11753731 7.95024876 38.11753731 6 40.625 C3.28424195 42.16637619 1.55954946 42.6522951 -1.5625 42.5 C-4.73289213 41.36191052 -6.07045537 40.41212003 -8 37.625 C-8.33223586 34.86691503 -8.18634748 32.42021219 -8 29.625 C-9.5778125 29.7178125 -9.5778125 29.7178125 -11.1875 29.8125 C-15.18387024 29.6159572 -16.86899906 29.01929484 -20 26.625 C-21.44430855 23.73638291 -21.37688506 21.82852299 -21 18.625 C-19 15.75 -19 15.75 -16 13.625 C-13.19242993 13.21502212 -10.86006586 13.38262154 -8 13.625 C-8.103125 12.408125 -8.20625 11.19125 -8.3125 9.9375 C-8.30621859 6.40106592 -8.04353719 5.68646428 -5.875 2.625 C-3 0.625 -3 0.625 0 0 Z " fill="#000000" transform="translate(452,85.375)"/>
<path d="M0 0 C1.08839774 0.88967344 2.17044608 1.78711574 3.25 2.6875 C3.85328125 3.18636719 4.4565625 3.68523437 5.078125 4.19921875 C7.31020093 6.29065575 9.10976837 8.59940583 11 11 C1.09971309 21.04054874 -8.81798887 31.06360575 -18.75597477 41.0668478 C-23.37002954 45.71222147 -27.97833476 50.3630134 -32.57397461 55.02661133 C-37.00880217 59.52660594 -41.45810485 64.01180667 -45.91784477 68.48710823 C-47.61716404 70.19751815 -49.31119124 71.9132026 -50.99980354 73.63418388 C-53.36508294 76.04298563 -55.74844782 78.43238286 -58.13696289 80.81811523 C-59.17922279 81.89273262 -59.17922279 81.89273262 -60.24253845 82.98905945 C-65.62861088 88.30756776 -65.62861088 88.30756776 -69.87034607 89.03871155 C-73 89 -73 89 -74.9375 87.5625 C-75.4634375 86.7890625 -75.4634375 86.7890625 -76 86 C-73.67104031 83.64147344 -71.3360189 81.28903326 -69 78.9375 C-68.35160156 78.28072266 -67.70320312 77.62394531 -67.03515625 76.94726562 C-66.38417969 76.29306641 -65.73320312 75.63886719 -65.0625 74.96484375 C-64.47597656 74.3730835 -63.88945312 73.78132324 -63.28515625 73.17163086 C-61.38454387 71.36543993 -59.45026977 69.65702508 -57.46264648 67.94946289 C-48.40677307 60.06638133 -40.03325472 51.37846179 -31.51635742 42.92138672 C-29.20924894 40.63218752 -26.89389012 38.351841 -24.57104492 36.07861328 C-21.74742278 33.31518992 -18.93881613 30.53731494 -16.1402874 27.74848938 C-15.07728248 26.69402209 -14.0091656 25.64468126 -12.93580818 24.60075378 C-11.43760935 23.14151238 -9.95950227 21.66439384 -8.48461914 20.18164062 C-7.64048965 19.3478186 -6.79636017 18.51399658 -5.926651 17.65490723 C-3.55776928 14.39061017 -3.21289559 11.99051947 -3 8 C-3.226875 7.278125 -3.45375 6.55625 -3.6875 5.8125 C-3.790625 5.214375 -3.89375 4.61625 -4 4 C-2.0625 1.75 -2.0625 1.75 0 0 Z " fill="#09A26A" transform="translate(305,157)"/>
<path d="M0 0 C8.91 0 17.82 0 27 0 C27.57142857 14.85714286 27.57142857 14.85714286 23 22 C20.62374823 22.10883596 18.25256024 22.18766696 15.875 22.25 C15.20984375 22.28351563 14.5446875 22.31703125 13.859375 22.3515625 C8.72295168 22.45227668 5.8928447 21.30371983 2 18 C-1.67709216 13.1672503 -0.10486992 5.6629758 0 0 Z " fill="#89C8FC" transform="translate(230,475)"/>
<path d="M0 0 C2.4375 1.5 2.4375 1.5 4 4 C4.88322907 10.62769527 4.88322907 10.62769527 2.80737305 13.85302734 C1.16125002 15.66160174 -0.55532729 17.30401743 -2.375 18.9375 C-2.97828125 19.51306641 -3.5815625 20.08863281 -4.203125 20.68164062 C-9.72327303 25.88898026 -9.72327303 25.88898026 -13.875 26.25 C-17.42231438 25.96621485 -18.66862746 25.67676107 -21 23 C-22.02307826 19.31691826 -22.53591616 17.08957789 -20.8203125 13.6015625 C-18.76453351 10.66347494 -16.49307163 8.26417062 -13.9375 5.75 C-12.62072266 4.44289063 -12.62072266 4.44289063 -11.27734375 3.109375 C-7.54424342 -0.34838516 -5.05912096 -0.43613112 0 0 Z " fill="#000000" transform="translate(309,20)"/>
<path d="M0 0 C2.99315012 2.02052107 5.45281529 4.45281529 8 7 C8.59554687 7.51304688 9.19109375 8.02609375 9.8046875 8.5546875 C12.66573427 11.08719301 13.96374293 12.87843217 15.0625 16.5625 C14.99290819 20.39004953 14.35899691 22.02941129 12 25 C8.98221063 26.50889469 7.37677363 26.50026276 4 26 C1.03182649 23.9710457 -1.43656072 21.50931677 -4 19 C-4.68191406 18.42507812 -5.36382812 17.85015625 -6.06640625 17.2578125 C-10.66006499 13.230241 -10.66006499 13.230241 -11.57421875 9.921875 C-11.75392112 6.57569296 -11.20555039 4.32888063 -9.4375 1.5 C-5.89383548 -0.68071663 -4.10900306 -0.75331723 0 0 Z " fill="#000000" transform="translate(210,20)"/>
<path d="M0 0 C0.66 -0.0103125 1.32 -0.020625 2 -0.03125 C5.16169661 0.80857566 6.14790399 1.76459666 8 4.5 C8.57032793 8.00947416 8.51210489 11.45265761 8.4375 15 C8.44458984 15.95003906 8.45167969 16.90007813 8.45898438 17.87890625 C8.38501332 25.97020215 8.38501332 25.97020215 5 29.5 C1.02655839 30.60373378 -1.08999772 30.91543583 -4.875 29.1875 C-7 27.5 -7 27.5 -8 25.5 C-8.29214653 22.04823835 -8.27787308 18.58769201 -8.3125 15.125 C-8.34150391 14.1659375 -8.37050781 13.206875 -8.40039062 12.21875 C-8.46401781 5.19039295 -8.46401781 5.19039295 -6.23046875 1.8671875 C-3.90502208 0.44178236 -2.70165259 -0.04221332 0 0 Z " fill="#000000" transform="translate(256,-0.5)"/>
<path d="M0 0 C35.64 0 71.28 0 108 0 C105.5087265 6.22818374 103.07492145 9.87886155 97.13305664 13.17749023 C93.05200922 14.7511481 88.87264429 14.41135889 84.5625 14.25 C83.64017578 14.23195313 82.71785156 14.21390625 81.76757812 14.1953125 C79.51061267 14.14853601 77.25587388 14.08301871 75 14 C77 10 79 6 81 2 C54.27 2 27.54 2 0 2 C0 1.34 0 0.68 0 0 Z " fill="#96A2AE" transform="translate(202,445)"/>
<path d="M0 0 C8.91 0 17.82 0 27 0 C27 4.29 27 8.58 27 13 C18.09 13 9.18 13 0 13 C0 8.71 0 4.42 0 0 Z " fill="#9CA8B6" transform="translate(285,417)"/>
<path d="M0 0 C8.91 0 17.82 0 27 0 C27 4.29 27 8.58 27 13 C18.09 13 9.18 13 0 13 C0 8.71 0 4.42 0 0 Z " fill="#9CA9B7" transform="translate(285,389)"/>
<path d="M0 0 C6.01826738 4.97161218 11.66337352 10.29829243 17 16 C17 16.33 17 16.66 17 17 C12.42863576 17.76189404 10.21480613 17.85340578 6.34765625 15.13671875 C2.49827935 11.68301936 -1.00380532 8.22764039 -4 4 C-2.68 2.68 -1.36 1.36 0 0 Z " fill="#09A66C" transform="translate(206,200)"/>
</svg>
