<?xml version="1.0" encoding="UTF-8"?>
<!--Generator: Apple Native CoreSVG 341-->
<!DOCTYPE svg
PUBLIC "-//W3C//DTD SVG 1.1//EN"
       "http://www.w3.org/Graphics/SVG/1.1/DTD/svg11.dtd">
<svg version="1.1" xmlns="http://www.w3.org/2000/svg" xmlns:xlink="http://www.w3.org/1999/xlink" viewBox="0 0 996.094 996.582">
 <g>
  <rect height="996.582" opacity="0" width="996.094" x="0" y="0"/>
  <path d="M498.047 996.094C772.949 996.094 996.094 772.949 996.094 498.047C996.094 223.145 772.949 0 498.047 0C223.145 0 0 223.145 0 498.047C0 772.949 223.145 996.094 498.047 996.094ZM498.047 913.086C268.555 913.086 83.0078 727.539 83.0078 498.047C83.0078 268.555 268.555 83.0078 498.047 83.0078C727.539 83.0078 913.086 268.555 913.086 498.047C913.086 727.539 727.539 913.086 498.047 913.086Z" fill="white" fill-opacity="0.85"/>
  <path d="M359.375 692.383L691.895 359.375C699.707 352.051 703.613 342.773 703.613 332.031C703.613 310.547 686.035 293.457 664.551 293.457C653.809 293.457 645.02 297.363 637.695 305.176L303.711 637.207C296.387 645.02 291.992 653.809 291.992 665.039C291.992 687.012 309.57 704.59 331.055 704.59C342.773 704.59 352.051 699.707 359.375 692.383ZM636.719 692.383C644.043 699.707 653.32 704.59 664.551 704.59C686.035 704.59 703.613 687.012 703.613 665.039C703.613 653.809 699.707 645.02 691.895 637.207L358.398 305.176C351.074 297.363 341.797 293.457 331.055 293.457C309.57 293.457 291.992 310.547 291.992 332.031C291.992 342.773 296.387 352.051 303.711 359.375Z" fill="white" fill-opacity="0.85"/>
 </g>
</svg>
